<svg xmlns="http://www.w3.org/2000/svg" viewBox="0 0 128 128" id="logo">
  <path d="M128,64c0-8.28125-5.33527-16.07581-14.03552-20.69263,2.88855-9.41711,1.14844-18.70276-4.71057-24.56128-5.85846-5.85937-15.1449-7.60065-24.56146-4.711C80.07556,5.33508,72.28113,0,64,0S47.92419,5.33539,43.30731,14.03558c-9.41669-2.88812-18.70221-1.1485-24.56122,4.71051-5.85937,5.85889-7.5993,15.14514-4.71082,24.56134C5.33521,47.92432,0,55.71881,0,64S5.33527,80.07581,14.03552,84.69263c-2.88855,9.41711-1.14844,18.70276,4.71057,24.56128a21.90707,21.90707,0,0,0,15.7417,6.08252,30.141,30.141,0,0,0,8.81927-1.3725C47.92389,122.66449,55.71857,128,64,128s16.07623-5.33569,20.69305-14.03638a30.142,30.142,0,0,0,8.81964,1.3728,21.90591,21.90591,0,0,0,15.74121-6.08252c5.85938-5.85889,7.5993-15.14514,4.71082-24.56134C122.66479,80.07568,128,72.28119,128,64ZM112.55414,80.90729a39.50385,39.50385,0,0,0-8.166-11.878,2.00014,2.00014,0,1,0-2.83594,2.82129,35.44529,35.44529,0,0,1,7.38416,10.759A35.45106,35.45106,0,0,1,96.08643,85a2,2,0,0,0,.00342,4h.00342a39.49776,39.49776,0,0,0,14.197-2.62866c2.29236,7.89514.9082,15.28174-3.8645,20.05444-4.77283,4.772-12.15881,6.15692-20.0545,3.86462A39.49714,39.49714,0,0,0,89,96.09326a2.0001,2.0001,0,0,0-1.99658-2.00342H87a2,2,0,0,0-2,1.99658,35.45116,35.45116,0,0,1-2.3905,12.85022,35.44883,35.44883,0,0,1-10.75891-7.3844,2.00014,2.00014,0,1,0-2.82129,2.83594,39.49947,39.49947,0,0,0,11.87805,8.16589C76.94513,119.75623,70.7453,124,64,124s-12.94513-4.24371-16.90729-11.44586a39.50385,39.50385,0,0,0,11.878-8.166,2.00014,2.00014,0,1,0-2.82129-2.83594,35.44529,35.44529,0,0,1-10.759,7.38416A35.45106,35.45106,0,0,1,43,96.08643a2,2,0,0,0-2-1.99658h-.00342A2.0001,2.0001,0,0,0,39,96.09326a39.49677,39.49677,0,0,0,2.62866,14.19708c-7.89545,2.29266-15.28168.9082-20.05444-3.86456-4.7724-4.7724-6.15662-12.15839-3.86456-20.05444A39.49809,39.49809,0,0,0,31.90674,89h.00342a2,2,0,0,0,.00342-4,35.45116,35.45116,0,0,1-12.85022-2.3905,35.44883,35.44883,0,0,1,7.3844-10.75891,2.00014,2.00014,0,1,0-2.83594-2.82129,39.49947,39.49947,0,0,0-8.16589,11.87805C8.24377,76.94513,4,70.7453,4,64S8.24371,51.05487,15.44586,47.09271a39.50385,39.50385,0,0,0,8.166,11.878,2.00014,2.00014,0,1,0,2.83594-2.82129,35.44529,35.44529,0,0,1-7.38416-10.759A35.45106,35.45106,0,0,1,31.91357,43a2,2,0,0,0-.00342-4h-.00342a39.49776,39.49776,0,0,0-14.197,2.62866c-2.29236-7.89514-.9082-15.28174,3.8645-20.05444,4.77161-4.77252,12.1568-6.1579,20.0545-3.86469A39.49591,39.49591,0,0,0,39,31.90674a2.0001,2.0001,0,0,0,1.99658,2.00342H41a2,2,0,0,0,2-1.99658,35.45116,35.45116,0,0,1,2.3905-12.85022,35.44883,35.44883,0,0,1,10.75891,7.3844,2.00014,2.00014,0,1,0,2.82129-2.83594,39.49947,39.49947,0,0,0-11.87805-8.16589C51.05487,8.24377,57.2547,4,64,4S76.94513,8.24371,80.90729,15.44586a39.50385,39.50385,0,0,0-11.878,8.166,2.00014,2.00014,0,0,0,2.82129,2.83594,35.44529,35.44529,0,0,1,10.759-7.38416A35.45106,35.45106,0,0,1,85,31.91357a2,2,0,0,0,2,1.99658h.00342A2.0001,2.0001,0,0,0,89,31.90674a39.49776,39.49776,0,0,0-2.62866-14.197c7.89514-2.29236,15.28174-.9082,20.05444,3.8645,4.7724,4.7724,6.15662,12.15839,3.86456,20.05444A39.49809,39.49809,0,0,0,96.09326,39h-.00342a2,2,0,0,0-.00342,4,35.45116,35.45116,0,0,1,12.85022,2.3905,35.44883,35.44883,0,0,1-7.3844,10.75891,2.00014,2.00014,0,0,0,2.83594,2.82129,39.49947,39.49947,0,0,0,8.16589-11.87805C119.75623,51.05487,124,57.2547,124,64S119.75629,76.94513,112.55414,80.90729Z"></path>
  <path d="M64,32.5A31.5,31.5,0,1,0,95.5,64,31.5357,31.5357,0,0,0,64,32.5ZM81.15045,42.52643a30.0425,30.0425,0,0,0-11.287,7.32776A30.0657,30.0657,0,0,0,67.0639,36.67493,27.36411,27.36411,0,0,1,81.15045,42.52643ZM60.9361,36.67493a30.06347,30.06347,0,0,0-2.79932,13.17828,30.05132,30.05132,0,0,0-11.28717-7.32684A27.36383,27.36383,0,0,1,60.9361,36.67493ZM42.52643,46.84961a30.04213,30.04213,0,0,0,7.32782,11.287A30.0625,30.0625,0,0,0,36.67493,60.936,27.36414,27.36414,0,0,1,42.52643,46.84961Zm-5.8515,20.21417a30.065,30.065,0,0,0,13.17828,2.79944,30.05132,30.05132,0,0,0-7.32684,11.28717A27.36394,27.36394,0,0,1,36.67493,67.06378ZM46.84955,85.47357a30.0425,30.0425,0,0,0,11.287-7.32776A30.0657,30.0657,0,0,0,60.9361,91.32507,27.36411,27.36411,0,0,1,46.84955,85.47357ZM53,64A11,11,0,1,1,64,75,11.01245,11.01245,0,0,1,53,64ZM67.0639,91.32507a30.06347,30.06347,0,0,0,2.79932-13.17828,30.05132,30.05132,0,0,0,11.28717,7.32684A27.36383,27.36383,0,0,1,67.0639,91.32507ZM85.47357,81.15045a30.04188,30.04188,0,0,0-7.32794-11.28717A30.06568,30.06568,0,0,0,91.32507,67.0639,27.36411,27.36411,0,0,1,85.47357,81.15045Zm-7.326-23.0144a30.05247,30.05247,0,0,0,7.326-11.2865A27.36414,27.36414,0,0,1,91.32507,60.936,30.06238,30.06238,0,0,0,78.14752,58.136Z"></path>
  <circle cx="64" cy="64" r="7"></circle>
  <circle cx="64" cy="13" r="2"></circle>
  <circle cx="64" cy="115" r="2"></circle>
  <circle cx="115" cy="64" r="2"></circle>
  <circle cx="13" cy="64" r="2"></circle>
  <path d="M100.06244 102.06244a2 2 0 10-1.41418-.58582A1.99375 1.99375 0 00100.06244 102.06244zM27.93756 25.93756a2 2 0 101.41425.58575A1.9937 1.9937 0 0027.93756 25.93756zM100.06244 29.93756a2 2 0 10-1.41418-.58582A1.994 1.994 0 00100.06244 29.93756zM27.93756 98.06244a2 2 0 101.41425.58582A1.99351 1.99351 0 0027.93756 98.06244z"></path>
</svg>
