<svg xmlns="http://www.w3.org/2000/svg" viewBox="0 0 512 512" id="inventory">
  <path d="M448,456a8,8,0,0,0,8-8V281a33.038,33.038,0,0,0-33-33H360V89a33.038,33.038,0,0,0-33-33H185a33.038,33.038,0,0,0-33,33V248H89a33.038,33.038,0,0,0-33,33V448a8,8,0,0,0,8,8H448ZM384,328a8,8,0,0,0,8-8V264h31a17.019,17.019,0,0,1,17,17V440H264V281a17.019,17.019,0,0,1,17-17h31v56a8,8,0,0,0,12.8,6.4L352,306l27.2,20.4A7.993,7.993,0,0,0,384,328Zm-8-64v40l-19.2-14.4a8,8,0,0,0-9.6,0L328,304V264ZM232,72h48v40L260.8,97.6a8,8,0,0,0-9.6,0L232,112ZM168,89a17.019,17.019,0,0,1,17-17h31v56a8,8,0,0,0,12.8,6.4L256,114l27.2,20.4A8,8,0,0,0,296,128V72h31a17.019,17.019,0,0,1,17,17V248H168ZM136,264h48v40l-19.2-14.4a8,8,0,0,0-9.6,0L136,304ZM248,440H72V281a17.019,17.019,0,0,1,17-17h31v56a8,8,0,0,0,12.8,6.4L160,306l27.2,20.4A8,8,0,0,0,200,320V264h31a17.019,17.019,0,0,1,17,17Z"></path>
  <path d="M240 192h32a24 24 0 000-48H240a24 24 0 000 48zm0-32h32a8 8 0 010 16H240a8 8 0 010-16zM176 336H144a24 24 0 000 48h32a24 24 0 000-48zm0 32H144a8 8 0 010-16h32a8 8 0 010 16zM312 360a24.028 24.028 0 0024 24h32a24 24 0 000-48H336A24.028 24.028 0 00312 360zm64 0a8.009 8.009 0 01-8 8H336a8 8 0 010-16h32A8.009 8.009 0 01376 360z"></path>
</svg>
