<svg xmlns="http://www.w3.org/2000/svg" viewBox="0 0 64 64" id="item">
  <path d="M59.89288,18.78876a1.04132,1.04132,0,0,0-.5457-.88349L32.31836,4.189a1.00037,1.00037,0,0,0-.90869.00147L4.64941,17.90674a1.04757,1.04757,0,0,0-.54394.894c.002.06173.06132,26.14967.067,26.20876-.036.44124.58233.89888.54019.82519.58058.29872,26.826,14.12615,26.88044,14.14553a1.1266,1.1266,0,0,0,.43378.1003,1.38789,1.38789,0,0,0,.45671-.11044c.587-.30485,26.85225-13.47487,26.912-13.51638.40347-.1497.549-.921.49894-.87338C59.88959,45.04735,59.90007,18.79539,59.89288,18.78876ZM31.86816,31.12354,25.94556,28.148,49.61108,15.20734,56.667,18.78809ZM13.87109,24.31989l9.26465,4.65472v9.82715L18.51709,32.832a1.00072,1.00072,0,0,0-1.37256-.20166l-3.27344,2.33984Zm1.047-1.71216c4.14552-2.18555,20.3511-10.72815,24.17083-12.74017L47.44873,14.11,23.773,27.05646ZM31.86816,6.20313l5.03412,2.55468C34.18785,10.1883,15.87209,19.84088,12.71759,21.50219l-5.40216-2.7141ZM6.1095,20.42035l5.76159,2.89471V36.91455a1,1,0,0,0,1.58155.81348l4.07177-2.91065,5.82032,7.523a1.006,1.006,0,0,0,1.791-.61186l0-11.749,5.73364,2.88068.14747,24.559L6.169,44.34131Zm26.90759,37.044-.14764-24.60492L57.89453,20.41132V44.97168Z"></path>
</svg>
