<svg xmlns="http://www.w3.org/2000/svg" enable-background="new 0 0 1024 1024" viewBox="0 0 1024 1024" id="quantity">
  <path d="M879.85,499.5H752h-35.74c0.15-1.2,0.24-2.41,0.24-3.65V176.15c0-15.8-12.85-28.65-28.65-28.65H560h-96H336.15
	c-15.8,0-28.65,12.85-28.65,28.65v319.71c0,1.24,0.09,2.45,0.24,3.65H272H144.15c-15.8,0-28.65,12.85-28.65,28.65v319.71
	c0,15.8,12.85,28.65,28.65,28.65h351.71c5.99,0,11.55-1.85,16.15-5c4.6,3.15,10.16,5,16.15,5h351.71c15.8,0,28.65-12.85,28.65-28.65
	V528.15C908.5,512.35,895.65,499.5,879.85,499.5z M668.5,524.5h19.35h51.65v76.14l-28.57-19.04c-2.1-1.4-4.52-2.1-6.93-2.1
	s-4.83,0.7-6.93,2.1l-28.57,19.04V524.5z M547.5,172.5v76.14l-28.57-19.04c-2.1-1.4-4.52-2.1-6.93-2.1s-4.83,0.7-6.93,2.1
	l-28.57,19.04V172.5H547.5z M332.5,495.85V176.15c0-2.01,1.64-3.65,3.65-3.65H451.5V272c0,4.61,2.54,8.85,6.6,11.02
	c4.07,2.18,9,1.94,12.83-0.62L512,255.02l41.07,27.38c2.09,1.39,4.51,2.1,6.93,2.1c2.02,0,4.05-0.49,5.9-1.48
	c4.06-2.17,6.6-6.41,6.6-11.02v-99.5h115.35c2.01,0,3.65,1.64,3.65,3.65v319.71c0,2.01-1.64,3.65-3.65,3.65H656H528.15h-32.29H368
	h-31.85C334.14,499.5,332.5,497.86,332.5,495.85z M336.15,524.5h19.35v76.14l-28.57-19.04c-2.1-1.4-4.52-2.1-6.93-2.1
	s-4.83,0.7-6.93,2.1l-28.57,19.04V524.5H336.15z M495.85,851.5H144.15c-2.01,0-3.65-1.64-3.65-3.65V528.15
	c0-2.01,1.64-3.65,3.65-3.65H259.5V624c0,4.61,2.54,8.85,6.6,11.02c4.07,2.18,9,1.94,12.83-0.62L320,607.02l41.07,27.38
	c2.09,1.39,4.51,2.1,6.93,2.1c2.02,0,4.05-0.49,5.9-1.48c4.06-2.17,6.6-6.41,6.6-11.02v-99.5h115.35c2.01,0,3.65,1.64,3.65,3.65
	v319.71C499.5,849.86,497.86,851.5,495.85,851.5z M883.5,847.85c0,2.01-1.64,3.65-3.65,3.65H528.15c-2.01,0-3.65-1.64-3.65-3.65
	V528.15c0-2.01,1.64-3.65,3.65-3.65H643.5V624c0,4.61,2.54,8.85,6.6,11.02c4.07,2.18,9,1.94,12.83-0.62L704,607.02l41.07,27.38
	c2.09,1.39,4.51,2.1,6.93,2.1c2.02,0,4.05-0.49,5.9-1.48c4.06-2.17,6.6-6.41,6.6-11.02v-99.5h115.35c2.01,0,3.65,1.64,3.65,3.65
	V847.85z"></path>
</svg>
