<svg xmlns="http://www.w3.org/2000/svg" fill-rule="evenodd" stroke-linejoin="round" stroke-miterlimit="2" clip-rule="evenodd" viewBox="0 0 64 64" id="update">
  <path d="m 24.999759,33.000998 h -5.999767 c -0.8092,0 -1.538402,-0.486668 -1.847621,-1.235002 -0.309988,-0.746669 -0.138456,-1.60667 0.43306,-2.180005 L 30.584928,16.585965 c 0.37537,-0.375001 0.883812,-0.585001 1.41456,-0.585001 0.52998,0 1.039191,0.21 1.413792,0.585001 l 13.000266,13.000026 c 0.572286,0.573335 0.743048,1.433336 0.433829,2.180005 -0.309988,0.748334 -1.03919,1.235002 -1.84839,1.235002 0,0 -3.629859,0 -5.999767,0 v 19.000038 c 0,1.061669 -0.421523,2.078337 -1.171494,2.828339 -0.74997,0.750001 -1.767623,1.171669 -2.828352,1.171669 -1.743009,0 -4.256758,0 -5.999767,0 -1.060729,0 -2.078382,-0.421668 -2.828352,-1.171669 -0.749971,-0.750002 -1.171494,-1.76667 -1.171494,-2.828339 0,-4.353342 0,-14.646696 0,-19.000038 z m 9.999613,19.000038 V 33.000998 c 0,-1.061669 0.421523,-2.078337 1.171494,-2.828339 0.74997,-0.750001 1.767623,-1.171669 2.828352,-1.171669 h 1.171493 l -8.171222,-8.171683 -8.171223,8.171683 h 1.171493 c 1.060729,0 2.078382,0.421668 2.828352,1.171669 0.749971,0.750002 1.171494,1.76667 1.171494,2.828339 0,4.353342 0,14.646696 0,19.000038 0,0 5.999767,0 5.999767,0 z"></path>
  <path d="m 19.000545,39.005289 h -4.999084 c -1.106771,0 -2.000311,-0.895999 -2.000311,-2.001998 0,-5.945324 0,-17.051975 0,-22.999633 0,-1.103665 0.89354,-1.999664 2.000311,-1.999664 8.36678,0 27.632038,0 35.998818,0 1.106771,0 2.000311,0.895999 2.000311,1.999664 0,5.947658 0,17.054309 0,22.999633 0,1.105999 -0.89354,2.001998 -2.000311,2.001998 -1.394463,0 -3.096927,0 -4.999084,0 -1.103386,0 -2.00031,0.895998 -2.00031,1.999663 0,1.103665 0.896924,1.999664 2.00031,1.999664 1.902157,0 3.604621,0 4.999084,0 3.313543,0 6.000931,-2.685663 6.000931,-6.001325 0,-5.945324 0,-17.051975 0,-22.999633 0,-3.313329 -2.687388,-5.9989918 -6.000931,-5.9989918 -8.36678,0 -27.632038,0 -35.998818,0 -3.313543,0 -6.0009314,2.6856628 -6.0009314,5.9989918 0,5.947658 0,17.054309 0,22.999633 0,3.315662 2.6873884,6.001325 6.0009314,6.001325 h 4.999084 c 1.103386,0 2.00031,-0.895999 2.00031,-1.999664 0,-1.103665 -0.896924,-1.999663 -2.00031,-1.999663 z"></path>
</svg>
